Coordinates
version=1
nRows=9
nColumns=63
inDegrees=yes

Units are S.I. units (second, meters, Newtons, ...)
If the header above contains a line with 'inDegrees', this indicates whether rotational values are in degrees (yes) or radians (no).

endheader
time	pelvis_tilt	pelvis_list	pelvis_rotation	pelvis_tx	pelvis_ty	pelvis_tz	hip_flexion_r	hip_adduction_r	hip_rotation_r	knee_angle_r	knee_angle_r_beta	ankle_angle_r	subtalar_angle_r	mtp_angle_r	hip_flexion_l	hip_adduction_l	hip_rotation_l	knee_angle_l	knee_angle_l_beta	ankle_angle_l	subtalar_angle_l	mtp_angle_l	L5_S1_Flex_Ext	L5_S1_Lat_Bending	L5_S1_axial_rotation	L4_L5_Flex_Ext	L4_L5_Lat_Bending	L4_L5_axial_rotation	L3_L4_Flex_Ext	L3_L4_Lat_Bending	L3_L4_axial_rotation	L2_L3_Flex_Ext	L2_L3_Lat_Bending	L2_L3_axial_rotation	L1_L2_Flex_Ext	L1_L2_Lat_Bending	L1_L2_axial_rotation	L1_T12_Flex_Ext	L1_T12_Lat_Bending	L1_T12_axial_rotation	Abs_r3	Abs_r2	Abs_r1	Abs_t1	Abs_t2	neck_flexion	neck_bending	neck_rotation	arm_flex_r	arm_add_r	arm_rot_r	elbow_flex_r	pro_sup_r	wrist_flex_r	wrist_dev_r	arm_flex_l	arm_add_l	arm_rot_l	elbow_flex_l	pro_sup_l	wrist_flex_l	wrist_dev_l
3.949153	-16.262024	-27.840024	67.705566	0.227609	0.793258	0.809780	48.569132	0.367460	9.228330	46.025766	0.803301	39.146780	2.620038	0.000000	46.126365	-7.837763	-28.866881	44.357417	0.774183	32.198890	-0.195700	0.000000	-0.032034	-1.172964	1.531025	-0.059491	-1.560042	1.626714	-0.052629	-2.851945	1.626714	-0.036612	-2.851945	1.339647	-0.029747	-2.391909	1.243958	-0.018304	-1.816922	1.148269	-0.228818	-13.268806	8.515100	0.000000	0.000000	9.521139	8.148045	7.290272	-7.523298	-14.170096	-26.730479	108.111170	47.688621	0.427970	3.248091	4.254841	-29.078642	-19.091667	68.156220	61.719763	-9.562542	-7.166578
3.966102	-16.965496	-28.024190	66.762925	0.228707	0.789874	0.813015	49.714035	0.577397	10.099344	46.920909	0.818924	39.551401	2.702808	0.000000	46.839821	-8.153555	-29.652481	45.090891	0.786985	32.740837	-0.004208	0.000000	-0.041568	-1.215456	1.433277	-0.077197	-1.616557	1.522857	-0.068293	-2.955260	1.522857	-0.047508	-2.955260	1.254117	-0.038600	-2.478558	1.164538	-0.023752	-1.882742	1.074958	-0.296918	-13.749485	7.971456	0.000000	0.000000	9.595465	8.196275	8.150035	-5.919848	-13.748098	-25.707838	108.101162	47.157758	0.608803	2.140915	3.729872	-28.972871	-20.172025	66.334552	60.730163	-9.464368	-7.947940
3.983051	-17.551255	-28.138437	66.073975	0.229578	0.787444	0.815185	50.559913	0.672979	10.750930	47.575557	0.830350	39.881452	2.852658	0.000000	47.316990	-8.326322	-30.273540	45.573625	0.795410	33.150015	0.235662	0.000000	-0.051116	-1.248921	1.311532	-0.094927	-1.661065	1.393502	-0.083978	-3.036627	1.393502	-0.058420	-3.036627	1.147590	-0.047466	-2.546800	1.065620	-0.029208	-1.934579	0.983649	-0.365116	-14.128044	7.294346	0.000000	0.000000	9.751113	8.252308	8.748415	-4.539454	-13.328238	-24.705407	108.186443	47.843772	0.442734	0.833446	2.941513	-28.612286	-21.457119	64.920720	60.431095	-9.456934	-8.208692
4.000000	-17.974428	-28.197314	65.692343	0.230152	0.786029	0.816190	51.081079	0.645922	11.126792	47.964097	0.837131	40.140036	3.069272	0.000000	47.566848	-8.350076	-30.671324	45.800155	0.799364	33.427016	0.494291	0.000000	-0.057472	-1.268295	1.179530	-0.106731	-1.686832	1.253251	-0.094421	-3.083732	1.253251	-0.065685	-3.083732	1.032089	-0.053368	-2.586307	0.958368	-0.032839	-1.964588	0.884648	-0.410516	-14.347203	6.560194	0.000000	0.000000	9.976567	8.302151	9.037518	-3.475950	-12.947751	-23.872376	108.450798	49.854819	-0.055951	-0.551684	1.964137	-28.010998	-22.817816	63.925158	60.838911	-9.602213	-7.898655
4.016949	-18.205072	-28.191089	65.633377	0.230420	0.785674	0.816014	51.246654	0.506369	11.230137	48.076800	0.839098	40.328326	3.321557	0.000000	47.577655	-8.238267	-30.843979	45.778943	0.798993	33.577572	0.775135	0.000000	-0.061699	-1.270072	1.058550	-0.114582	-1.689196	1.124709	-0.101366	-3.088053	1.124709	-0.070516	-3.088053	0.926231	-0.057294	-2.589931	0.860072	-0.035255	-1.967341	0.793912	-0.440711	-14.367308	5.887336	0.000000	0.000000	10.288847	8.315454	8.986199	-2.807602	-12.610094	-23.398604	108.969207	53.118366	-0.809177	-1.886129	0.906103	-27.215528	-24.094766	63.314741	61.933922	-9.976802	-6.965790
4.033898	-18.232054	-28.110980	65.909080	0.230352	0.786384	0.814667	51.037185	0.253887	11.050302	47.909424	0.836177	40.442759	3.591847	0.000000	47.348258	-7.991600	-30.775188	45.524571	0.794554	33.598245	1.063224	0.000000	-0.063023	-1.251905	0.957536	-0.117040	-1.665034	1.017382	-0.103541	-3.043882	1.017382	-0.072029	-3.043882	0.837844	-0.058523	-2.552885	0.777998	-0.036011	-1.939201	0.718152	-0.450167	-14.161800	5.325528	0.000000	0.000000	10.648353	8.282636	8.667347	-2.551632	-12.314945	-23.397271	109.758423	57.345622	-1.704999	-3.110746	-0.172879	-26.264856	-25.219891	63.051437	63.719169	-10.647998	-5.380260
4.050847	-18.072903	-27.950681	66.489589	0.229973	0.788109	0.812224	50.457892	-0.106071	10.610138	47.473047	0.828561	40.473169	3.860277	0.000000	46.887422	-7.612355	-30.468388	45.057288	0.786398	33.482478	1.317784	0.000000	-0.059670	-1.214314	0.887994	-0.110814	-1.615037	0.943493	-0.098032	-2.952482	0.943493	-0.068197	-2.952482	0.776994	-0.055410	-2.476228	0.721495	-0.034096	-1.880972	0.665995	-0.426219	-13.736557	4.938753	0.000000	0.000000	10.984968	8.194049	8.133166	-2.714680	-12.038013	-23.937169	110.846585	61.942671	-2.653292	-4.169426	-1.219781	-25.212214	-26.157742	63.082527	66.217755	-11.638092	-3.154944
4.067797	-17.764836	-27.691388	67.311303	0.229365	0.790771	0.808857	49.526096	-0.557311	9.970105	46.796936	0.816761	40.407176	4.093534	0.000000	46.197864	-7.117391	-29.974799	44.408442	0.775074	33.227139	1.525465	0.000000	-0.053281	-1.160289	0.853029	-0.098948	-1.543184	0.906344	-0.087535	-2.821127	0.906344	-0.060894	-2.821127	0.746401	-0.049476	-2.366061	0.693086	-0.030445	-1.797288	0.639772	-0.380578	-13.125421	4.744294	0.000000	0.000000	11.228127	8.056942	7.507371	-3.235716	-11.760731	-24.982536	112.232889	66.206277	-3.503550	-5.082215	-2.227556	-24.123058	-26.906469	63.374010	69.163915	-13.034416	-0.522633
4.084746	-17.344895	-27.330351	68.334447	0.228602	0.794245	0.804776	48.276882	-1.094369	9.148383	45.912190	0.801319	40.235147	4.286407	0.000000	45.308287	-6.515576	-29.310489	43.616575	0.761253	32.813078	1.651530	0.000000	-0.044586	-1.093639	0.842971	-0.082801	-1.454541	0.895656	-0.073250	-2.659075	0.895656	-0.050957	-2.659075	0.737599	-0.041403	-2.230150	0.684914	-0.025476	-1.694048	0.632228	-0.318473	-12.371469	4.688350	0.000000	0.000000	11.286917	7.894551	6.900266	-4.040913	-11.484374	-26.417710	113.904385	69.377127	-4.125665	-5.931925	-3.229874	-23.059096	-27.473660	63.924606	71.797695	-14.762097	2.060993
